<?xml version="1.0" encoding="UTF-8" standalone="no"?>
<!-- Created with Inkscape (http://www.inkscape.org/) -->

<svg
   width="661.75488"
   height="492.54977"
   viewBox="0 0 661.75488 492.54977"
   version="1.1"
   id="svg5"
   xml:space="preserve"
   inkscape:version="1.2.2 (732a01da63, 2022-12-09)"
   sodipodi:docname="dibujo_logo_cara.svg"
   xmlns:inkscape="http://www.inkscape.org/namespaces/inkscape"
   xmlns:sodipodi="http://sodipodi.sourceforge.net/DTD/sodipodi-0.dtd"
   xmlns="http://www.w3.org/2000/svg"
   xmlns:svg="http://www.w3.org/2000/svg"><sodipodi:namedview
     id="namedview7"
     pagecolor="#ffffff"
     bordercolor="#000000"
     borderopacity="0.25"
     inkscape:showpageshadow="2"
     inkscape:pageopacity="0.0"
     inkscape:pagecheckerboard="0"
     inkscape:deskcolor="#d1d1d1"
     inkscape:document-units="px"
     showgrid="false"
     inkscape:zoom="1"
     inkscape:cx="884"
     inkscape:cy="432"
     inkscape:window-width="1920"
     inkscape:window-height="1009"
     inkscape:window-x="2552"
     inkscape:window-y="131"
     inkscape:window-maximized="1"
     inkscape:current-layer="layer1" /><defs
     id="defs2" /><g
     inkscape:groupmode="layer"
     id="layer1"
     inkscape:label="draw"
     inkscape:export-filename="Cartoon Brain\head_cartoon_brain.svg"
     inkscape:export-xdpi="96"
     inkscape:export-ydpi="96"
     transform="translate(-628.87061,-213.91855)"><g
       id="g942"
       inkscape:label="right_arm"
       transform="rotate(180,991.88399,478.07815)"
       style="display:none"><path
         style="fill:none;fill-opacity:1;stroke:#000000;stroke-width:30;stroke-linecap:round;stroke-linejoin:round;stroke-dasharray:none;stroke-opacity:1"
         d="m 719.14466,479.79289 c 0,0 -6.14466,174.70711 18.35534,255.20711 0,0 6,21 17,24.5"
         id="path938"
         inkscape:label="arm"
         sodipodi:nodetypes="ccc" /><circle
         style="fill:#000000;fill-opacity:1;stroke:#ffffff;stroke-width:0;stroke-linecap:round;stroke-linejoin:round;stroke-dasharray:none;stroke-opacity:1"
         id="circle940"
         cx="752"
         cy="756.40625"
         r="27.25"
         inkscape:label="hand" /></g><g
       id="g2841"
       inkscape:label="left_leg"
       style="display:none"><path
         style="fill:none;fill-opacity:1;stroke:#000000;stroke-width:30;stroke-linecap:round;stroke-linejoin:round;stroke-dasharray:none;stroke-opacity:1"
         d="m 880.34794,668.92301 16.97057,67.17515 -42.54957,126.8506"
         id="path2197"
         sodipodi:nodetypes="ccc"
         inkscape:label="leg" /><path
         style="fill:#000000;fill-opacity:1;stroke:none;stroke-width:41.521;stroke-linecap:round;stroke-linejoin:round;stroke-dasharray:none;stroke-opacity:1"
         id="path2629"
         sodipodi:type="arc"
         sodipodi:cx="901.73792"
         sodipodi:cy="-877.57867"
         sodipodi:rx="48.613594"
         sodipodi:ry="46.136841"
         sodipodi:start="0"
         sodipodi:end="3.1481063"
         sodipodi:arc-type="slice"
         d="m 950.35151,-877.57867 a 48.613594,46.136841 0 0 1 -24.39826,40.00566 48.613594,46.136841 0 0 1 -48.70472,-0.15054 48.613594,46.136841 0 0 1 -24.12318,-40.15564 l 48.61257,0.30052 z"
         transform="scale(1,-1)"
         inkscape:label="foot" /></g><g
       id="g2852"
       inkscape:label="right_leg"
       transform="translate(249.60869,0.70710707)"
       style="display:none;fill:none"><path
         style="fill:none;fill-opacity:1;stroke:#000000;stroke-width:30;stroke-linecap:round;stroke-linejoin:round;stroke-dasharray:none;stroke-opacity:1"
         d="m 880.34794,668.92301 16.97057,67.17515 -42.54957,126.8506"
         id="path2848"
         sodipodi:nodetypes="ccc"
         inkscape:label="leg" /><path
         style="fill:#000000;fill-opacity:1;stroke:none;stroke-width:41.521;stroke-linecap:round;stroke-linejoin:round;stroke-dasharray:none;stroke-opacity:1"
         id="path2850"
         sodipodi:type="arc"
         sodipodi:cx="901.73792"
         sodipodi:cy="-877.57867"
         sodipodi:rx="48.613594"
         sodipodi:ry="46.136841"
         sodipodi:start="0"
         sodipodi:end="3.1481063"
         sodipodi:arc-type="slice"
         d="m 950.35151,-877.57867 a 48.613594,46.136841 0 0 1 -24.39826,40.00566 48.613594,46.136841 0 0 1 -48.70472,-0.15054 48.613594,46.136841 0 0 1 -24.12318,-40.15564 l 48.61257,0.30052 z"
         transform="scale(1,-1)"
         inkscape:label="foot" /></g><g
       id="g1807"
       inkscape:label="eyes"><g
         id="g3160"
         inkscape:label="left_eye"
         style="display:inline"><ellipse
           style="fill:#ffffff;fill-opacity:1;stroke:#000000;stroke-width:5;stroke-linecap:round;stroke-linejoin:round;stroke-dasharray:none;stroke-opacity:1"
           id="path3102"
           cx="926.375"
           cy="463.125"
           rx="33.65667"
           ry="46.15667"
           inkscape:label="outline" /><path
           id="path3156"
           style="fill:#000000;fill-opacity:1;stroke:#ffffff;stroke-width:0;stroke-linecap:round;stroke-linejoin:round;stroke-dasharray:none;stroke-opacity:1"
           inkscape:label="pupil"
           d="m 926.64062,446.65625 a 17.257193,16.921505 0 0 0 -17.25585,16.92187 17.257193,16.921505 0 0 0 7.45898,13.89063 5.9342065,3.6517417 19.234013 0 1 -0.0332,-4.13477 5.9342065,3.6517417 19.234013 0 1 7.92187,0.51758 5.9342065,3.6517417 19.234013 0 1 1.70703,5.58008 5.9342065,3.6517417 19.234013 0 1 -2.36133,0.87109 17.257193,16.921505 0 0 0 2.5625,0.19532 17.257193,16.921505 0 0 0 17.25782,-16.91993 17.257193,16.921505 0 0 0 -17.25782,-16.92187 z m 2.62696,2.69531 a 6.0546017,3.9965482 22.070075 0 1 3.00781,0.64258 6.0546017,3.9965482 22.070075 0 1 4.10938,5.97852 6.0546017,3.9965482 22.070075 0 1 -7.11329,1.42773 6.0546017,3.9965482 22.070075 0 1 -4.10937,-5.97851 6.0546017,3.9965482 22.070075 0 1 4.10547,-2.07032 z" /></g><g
         id="g4185"
         inkscape:label="right_eye"
         transform="matrix(-1,0,0,1,2069.75,-1.5)"
         style="display:inline"><ellipse
           style="fill:#ffffff;fill-opacity:1;stroke:#000000;stroke-width:5;stroke-linecap:round;stroke-linejoin:round;stroke-dasharray:none;stroke-opacity:1"
           id="ellipse4181"
           cx="926.375"
           cy="463.125"
           rx="33.65667"
           ry="46.15667"
           inkscape:label="outline" /><path
           id="path4183"
           style="fill:#000000;fill-opacity:1;stroke:#ffffff;stroke-width:0;stroke-linecap:round;stroke-linejoin:round;stroke-dasharray:none;stroke-opacity:1"
           inkscape:label="pupil"
           d="m 926.64062,446.65625 a 17.257193,16.921505 0 0 0 -17.25585,16.92187 17.257193,16.921505 0 0 0 7.45898,13.89063 5.9342065,3.6517417 19.234013 0 1 -0.0332,-4.13477 5.9342065,3.6517417 19.234013 0 1 7.92187,0.51758 5.9342065,3.6517417 19.234013 0 1 1.70703,5.58008 5.9342065,3.6517417 19.234013 0 1 -2.36133,0.87109 17.257193,16.921505 0 0 0 2.5625,0.19532 17.257193,16.921505 0 0 0 17.25782,-16.91993 17.257193,16.921505 0 0 0 -17.25782,-16.92187 z m 2.62696,2.69531 a 6.0546017,3.9965482 22.070075 0 1 3.00781,0.64258 6.0546017,3.9965482 22.070075 0 1 4.10938,5.97852 6.0546017,3.9965482 22.070075 0 1 -7.11329,1.42773 6.0546017,3.9965482 22.070075 0 1 -4.10937,-5.97851 6.0546017,3.9965482 22.070075 0 1 4.10547,-2.07032 z" /></g><path
         style="fill:#333333;fill-opacity:1;stroke:#000000;stroke-width:1;stroke-linecap:round;stroke-linejoin:round;stroke-dasharray:none;stroke-opacity:1"
         id="ellipse495"
         inkscape:label="eyelid_bottom_left"
         sodipodi:type="arc"
         sodipodi:cx="926.37482"
         sodipodi:cy="463.125"
         sodipodi:rx="33.65667"
         sodipodi:ry="46.15667"
         sodipodi:start="0"
         sodipodi:end="3.1371379"
         sodipodi:arc-type="slice"
         d="m 960.03149,463.125 a 33.65667,46.15667 0 0 1 -33.58171,46.15656 33.65667,46.15667 0 0 1 -33.7313,-45.95094 l 33.65634,-0.20562 z" /><path
         style="fill:#333333;fill-opacity:1;stroke:#000000;stroke-width:1;stroke-linecap:round;stroke-linejoin:round;stroke-dasharray:none;stroke-opacity:1"
         id="path1787"
         inkscape:label="eyelid_top_left"
         sodipodi:type="arc"
         sodipodi:cx="926.37482"
         sodipodi:cy="-463.125"
         sodipodi:rx="33.65667"
         sodipodi:ry="46.15667"
         sodipodi:start="0"
         sodipodi:end="3.1371379"
         sodipodi:arc-type="slice"
         d="m 960.03149,-463.125 a 33.65667,46.15667 0 0 1 -33.58171,46.15656 33.65667,46.15667 0 0 1 -33.7313,-45.95094 l 33.65634,-0.20562 z"
         transform="scale(1,-1)" /><path
         style="fill:#333333;fill-opacity:1;stroke:#000000;stroke-width:1;stroke-linecap:round;stroke-linejoin:round;stroke-dasharray:none;stroke-opacity:1"
         id="path1789"
         inkscape:label="eyelid_bottom_right"
         sodipodi:type="arc"
         sodipodi:cx="1143.3749"
         sodipodi:cy="461.125"
         sodipodi:rx="33.65667"
         sodipodi:ry="46.15667"
         sodipodi:start="0"
         sodipodi:end="3.1371379"
         sodipodi:arc-type="slice"
         d="m 1177.0315,461.125 a 33.65667,46.15667 0 0 1 -33.5817,46.15656 33.65667,46.15667 0 0 1 -33.7313,-45.95094 l 33.6564,-0.20562 z" /><path
         style="fill:#333333;fill-opacity:1;stroke:#000000;stroke-width:1;stroke-linecap:round;stroke-linejoin:round;stroke-dasharray:none;stroke-opacity:1"
         id="path1791"
         inkscape:label="eyelid_top_right"
         sodipodi:type="arc"
         sodipodi:cx="1143.3749"
         sodipodi:cy="-461.125"
         sodipodi:rx="33.65667"
         sodipodi:ry="46.15667"
         sodipodi:start="0"
         sodipodi:end="3.1371379"
         sodipodi:arc-type="slice"
         d="m 1177.0315,-461.125 a 33.65667,46.15667 0 0 1 -33.5817,46.15656 33.65667,46.15667 0 0 1 -33.7313,-45.95094 l 33.6564,-0.20562 z"
         transform="scale(1,-1)" /></g><g
       id="g1886"
       inkscape:label="head"><path
         id="path388"
         style="fill:#07d1f4;fill-opacity:1;stroke:none;stroke-width:4;stroke-dasharray:none;stroke-opacity:1"
         inkscape:label="outline"
         d="m 917.70117,213.93359 c -40.21753,-0.70557 -66.6582,23.6543 -66.6582,23.6543 -61.59674,3.1427 -82.96875,40.85547 -82.96875,40.85547 -89.88095,17.59906 -78.56641,88.62305 -78.56641,88.62305 -79.82434,34.56958 -49.02539,108.10937 -49.02539,108.10937 C 598.9989,561.28551 682,592.22266 682,592.22266 c 13.2341,81.84808 95.50391,78.42968 95.50391,78.42968 55.31134,38.34084 95.53711,16.3418 95.53711,16.3418 81.70994,49.65451 130.73628,-11.31445 130.73628,-11.31445 62.2254,51.54013 121.3086,6.28515 121.3086,6.28515 55.94,-1.25706 77.3106,-40.22656 77.3106,-40.22656 128.8504,-28.91275 78.5664,-179.13281 78.5664,-179.13281 10.0566,-30.79837 -8.7988,-59.71094 -8.7988,-59.71094 -5.0283,-118.7937 -92.3965,-120.67969 -92.3965,-120.67969 C 1095.5435,165.30676 979.89258,235.07422 979.89258,235.07422 957.10807,219.7536 935.98187,214.25431 917.70117,213.93359 Z M 1143.375,415.46875 a 33.65667,46.15667 0 0 1 33.6562,46.15625 33.65667,46.15667 0 0 1 -33.6562,46.15625 33.65667,46.15667 0 0 1 -33.6562,-46.15625 33.65667,46.15667 0 0 1 33.6562,-46.15625 z m -217,1.5 A 33.65667,46.15667 0 0 1 960.03125,463.125 33.65667,46.15667 0 0 1 926.375,509.28125 33.65667,46.15667 0 0 1 892.71875,463.125 33.65667,46.15667 0 0 1 926.375,416.96875 Z" /><g
         id="g3069"
         inkscape:label="details"><g
           id="g3040"
           inkscape:label="samall_details"><path
             style="display:inline;fill:none;fill-opacity:1;stroke:#ffffff;stroke-width:7;stroke-linecap:round;stroke-linejoin:round;stroke-dasharray:none;stroke-opacity:1"
             d="m 709.2281,419.66787 c 0,0 -3.18198,-4.59619 3.88909,-35.35533"
             id="path4211"
             sodipodi:nodetypes="cc"
             inkscape:label="1" /><path
             style="display:inline;fill:none;fill-opacity:1;stroke:#ffffff;stroke-width:7;stroke-linecap:round;stroke-linejoin:round;stroke-dasharray:none;stroke-opacity:1"
             d="m 718.77404,491.79277 c 0,0 -3.88908,-23.68808 16.26346,-32.88047"
             id="path4213"
             inkscape:label="2" /><path
             style="display:inline;fill:none;fill-opacity:1;stroke:#ffffff;stroke-width:7;stroke-linecap:round;stroke-linejoin:round;stroke-dasharray:none;stroke-opacity:1"
             d="m 814.43321,365.82421 c 0,0 -10.0962,-40.58758 38.20889,-41.3155"
             id="path4215"
             sodipodi:nodetypes="cc"
             inkscape:label="3" /><path
             style="display:inline;fill:none;fill-opacity:1;stroke:#ffffff;stroke-width:7;stroke-linecap:round;stroke-linejoin:round;stroke-dasharray:none;stroke-opacity:1"
             d="m 787.5,649.75 c 0,0 -14.75,4.25 -25.75,-2"
             id="path4217"
             inkscape:label="4" /><path
             style="display:inline;fill:none;fill-opacity:1;stroke:#ffffff;stroke-width:7;stroke-linecap:round;stroke-linejoin:round;stroke-dasharray:none;stroke-opacity:1"
             d="m 829.75,533.25 c 0,0 0,32 28.75,59"
             id="path4219"
             inkscape:label="5" /><path
             style="display:inline;fill:none;fill-opacity:1;stroke:#ffffff;stroke-width:7;stroke-linecap:round;stroke-linejoin:round;stroke-dasharray:none;stroke-opacity:1"
             d="m 1203.6725,625.61273 c 0,0 28.8146,-6.18719 20.6829,-38.89088"
             id="path4221"
             inkscape:label="6" /><path
             style="display:inline;fill:none;fill-opacity:1;stroke:#ffffff;stroke-width:7;stroke-linecap:round;stroke-linejoin:round;stroke-dasharray:none;stroke-opacity:1"
             d="m 1258.4733,464.39238 c 0,0 20.8596,8.3085 11.4905,42.24963"
             id="path4223"
             inkscape:label="7" /><path
             style="display:inline;fill:none;fill-opacity:1;stroke:#ffffff;stroke-width:7;stroke-linecap:round;stroke-linejoin:round;stroke-dasharray:none;stroke-opacity:1"
             d="m 1031.25,289 c 0,0 6.125,10.875 -1.75,34.875 0,0 14.375,7.375 24.375,23.375"
             id="path4225"
             inkscape:label="8" /><path
             style="display:inline;fill:none;fill-opacity:1;stroke:#ffffff;stroke-width:7;stroke-linecap:round;stroke-linejoin:round;stroke-dasharray:none;stroke-opacity:1"
             d="m 1128.875,274.125 c 0,0 25,1.5 38.5,28.375 0,0 25.5,-4.625 39.125,11.25"
             id="path4227"
             inkscape:label="9" /><path
             style="display:none;fill:none;stroke:#edf8fe;stroke-width:7;stroke-linecap:round;stroke-linejoin:round;stroke-dasharray:none;stroke-opacity:1"
             d="m 972.97893,619.07198 c -0.14991,0.0617 53.86627,19.49752 65.40747,-30.75914 0,0 23.6881,3.88909 31.8198,-6.36396"
             id="path1056"
             sodipodi:nodetypes="ccc"
             inkscape:label="10" /><path
             style="display:none;fill:none;stroke:#edf8fe;stroke-width:7;stroke-linecap:round;stroke-linejoin:round;stroke-dasharray:none;stroke-opacity:1"
             d="m 1057.1246,491.08566 c 0,0 10.2531,21.56676 -7.071,34.64824"
             id="path1208"
             sodipodi:nodetypes="cc"
             inkscape:label="11" /></g><g
           id="g3049"
           inkscape:label="big_details"
           style="stroke:#044e7c;stroke-opacity:1"><path
             style="fill:#000000;fill-opacity:0;stroke:#044e7c;stroke-width:12;stroke-linecap:round;stroke-linejoin:round;stroke-dasharray:none;stroke-opacity:1"
             d="m 700.44445,485.77778 c 0,0 -5.94608,-34.88889 26.72058,-46.66667 0,0 -18.78759,-96.83768 61.57135,-75.9842 0,0 5.80011,-69.29521 68.46678,-56.1841"
             id="path3009"
             sodipodi:nodetypes="cccc"
             inkscape:label="1" /><path
             style="fill:#000000;fill-opacity:0;stroke:#044e7c;stroke-width:12;stroke-linecap:round;stroke-linejoin:round;stroke-dasharray:none;stroke-opacity:1"
             d="m 844.12836,605.59768 c 0,0 -48.08326,-29.22709 -35.51247,-83.59574 0,0 -10.01861,-21.33911 -10.05663,-27.65573 -0.0508,-8.43451 -1.82319,-12.99166 4.71404,-27.34146 9.79493,-21.50074 34.2554,-22.94169 34.2554,-22.94169 0,0 -2.19989,-36.45528 23.8845,-58.45416"
             id="path3014"
             sodipodi:nodetypes="ccsscc"
             inkscape:label="2" /><path
             style="fill:none;fill-opacity:1;stroke:#044e7c;stroke-width:12;stroke-linecap:round;stroke-linejoin:round;stroke-dasharray:none;stroke-opacity:1"
             d="m 989.5,248 c 0,0 36.5,7 24.5,88.5 0,0 50,6.5 37.5,76.5"
             id="path4187"
             inkscape:label="3" /><path
             style="fill:none;fill-opacity:1;stroke:#044e7c;stroke-width:12;stroke-linecap:round;stroke-linejoin:round;stroke-dasharray:none;stroke-opacity:1"
             d="m 1111,291 c 0,0 36.5,-18.5 48.5,30.5 0,0 42.5,-28.5 45,42.5 0,0 18.5,0 19,25.5"
             id="path4189"
             inkscape:label="4" /><path
             style="fill:none;fill-opacity:1;stroke:#044e7c;stroke-width:12;stroke-linecap:round;stroke-linejoin:round;stroke-dasharray:none;stroke-opacity:1"
             d="m 1216,426 c 0,0 16,12 13.5,36.5 0,0 37,3 21.5,48 0,0 5.5,41.5 -24.5,54"
             id="path4191"
             inkscape:label="5" /><path
             style="fill:none;fill-opacity:1;stroke:#044e7c;stroke-width:12;stroke-linecap:round;stroke-linejoin:round;stroke-dasharray:none;stroke-opacity:1"
             d="m 710.64232,547.6542 c 0,0 -24.39519,32.17336 25.10229,49.14392 0,0 -12.72793,38.18377 55.15433,39.95154"
             id="path4193"
             inkscape:label="6" /><path
             style="fill:none;fill-opacity:1;stroke:#044e7c;stroke-width:12;stroke-linecap:round;stroke-linejoin:round;stroke-dasharray:none;stroke-opacity:1"
             d="m 1137.75,627.75 c 0,0 36.75,13.5 46.25,-11 0,0 33.5,-4 26.5,-28.25"
             id="path4195"
             inkscape:label="7" /><path
             style="display:none;fill:none;stroke:#044e7c;stroke-width:12;stroke-linecap:round;stroke-linejoin:round;stroke-dasharray:none;stroke-opacity:1"
             d="m 965,599.5 c 0,0 59.5,30 58.5,-32.5 0,0 48.5,21 43,-30 0,0 19,-12.5 8.5,-47.5"
             id="path445"
             inkscape:label="8" /></g></g></g><g
       id="g3007"
       inkscape:label="mouth"
       style="display:inline"
       transform="translate(0,18)"><path
         style="fill:#b44b3e;fill-opacity:1;stroke:none;stroke-width:4;stroke-linecap:round;stroke-linejoin:round;stroke-dasharray:none;stroke-opacity:1"
         d="m 986.88889,523.55556 c 0,0 14.00001,-6.22223 108.88891,-0.22223 0,0 12.2222,1.77778 10,34.88889 0,0 -4.8889,25.11111 -34.8889,39.55556 -30,14.44444 -58,0.66667 -58,0.66667 0,0 -27.55557,-14.22223 -34.00001,-35.11112 -6.44444,-20.88888 3.11111,-36.44444 8,-39.77777 z"
         id="path2922"
         inkscape:label="mouth" /><path
         style="fill:#ffffff;fill-opacity:1;stroke:none;stroke-width:4;stroke-linecap:round;stroke-linejoin:round;stroke-dasharray:none;stroke-opacity:1"
         d="m 1096.1154,523.32683 c -23.2559,16.34202 -56.197,17.21702 -56.197,17.21702 -29.8556,0.31427 -51.98219,-17.46161 -51.98219,-17.46161 0,0 18.22379,-3.45336 47.25129,-2.64474 29.5518,0.82322 60.9279,2.88933 60.9279,2.88933 z"
         id="path2980"
         sodipodi:nodetypes="cccsc"
         inkscape:label="teeth" /><path
         style="fill:#dc6f6b;fill-opacity:1;stroke:none;stroke-width:4;stroke-linecap:round;stroke-linejoin:round;stroke-dasharray:none;stroke-opacity:1"
         d="m 1099.4368,572.72436 c -25.4558,-26.08438 -57.8812,-18.50214 -57.8812,-18.50214 -32.6667,-7.11111 -58.01917,18.74051 -58.01917,18.74051 0,0 19.75977,31.79035 55.91057,31.43679 0,0 40.2104,2.99272 59.9898,-31.67516 z"
         id="path2982"
         sodipodi:nodetypes="ccccc"
         inkscape:label="tounge" /></g><g
       id="g936"
       inkscape:label="left_arm"
       style="display:none"><path
         style="fill:none;fill-opacity:1;stroke:#000000;stroke-width:30;stroke-linecap:round;stroke-linejoin:round;stroke-dasharray:none;stroke-opacity:1"
         d="m 754.5,480.5 c 0,0 -41.5,174 -17,254.5 0,0 6,21 17,24.5"
         id="path4721"
         inkscape:label="arm" /><circle
         style="fill:#000000;fill-opacity:1;stroke:#ffffff;stroke-width:0;stroke-linecap:round;stroke-linejoin:round;stroke-dasharray:none;stroke-opacity:1"
         id="path4778"
         cx="752"
         cy="756.40625"
         r="27.25"
         inkscape:label="hand" /></g><path
       style="display:inline;fill:none;fill-opacity:1;stroke:#000000;stroke-width:5;stroke-linecap:round;stroke-linejoin:round;stroke-dasharray:none;stroke-opacity:1"
       d="m 898.02561,406.93995 c 0,0 22.27387,-20.85965 51.97235,-0.70711"
       id="path7261"
       sodipodi:nodetypes="cc"
       inkscape:label="left_eyebrow" /><path
       style="display:inline;fill:none;fill-opacity:1;stroke:#000000;stroke-width:5;stroke-linecap:round;stroke-linejoin:round;stroke-dasharray:none;stroke-opacity:1"
       d="m 1116.8752,409.06127 c 0,0 22.2738,-20.85965 51.9723,-0.70711"
       id="path7317"
       sodipodi:nodetypes="cc"
       inkscape:label="right_eyebrow" /></g></svg>
